<mxfile host="Electron" modified="2023-08-30T15:31:32.514Z" agent="Mozilla/5.0 (Macintosh; Intel Mac OS X 10_15_7) AppleWebKit/537.36 (KHTML, like Gecko) draw.io/21.2.8 Chrome/112.0.5615.165 Electron/24.2.0 Safari/537.36" etag="Imw1mFK6mroyWRNfaIII" version="21.2.8" type="device">
  <diagram name="Page-1" id="MRZ8MyDSv6dmYq0hkkm5">
    <mxGraphModel dx="907" dy="560" grid="1" gridSize="10" guides="1" tooltips="1" connect="1" arrows="1" fold="1" page="1" pageScale="1" pageWidth="850" pageHeight="1100" math="0" shadow="0">
      <root>
        <mxCell id="0" />
        <mxCell id="1" parent="0" />
        <mxCell id="6Awo63cmqHgEUbsFCKZw-1" value="" style="shape=image;verticalLabelPosition=bottom;labelBackgroundColor=default;verticalAlign=top;aspect=fixed;imageAspect=0;image=data:image/svg+xml,PHN2ZyB4bWxucz0iaHR0cDovL3d3dy53My5vcmcvMjAwMC9zdmciIGhlaWdodD0iMTQ0cHgiIHdpZHRoPSIxNDRweCIgdmlld0JveD0iMCAwIDQ4IDQ4Ij48cGF0aCBkPSJNMTMuNTI3LDIxLjUyOWMwLDAuNTk3LDAuMDY0LDEuMDgsMC4xNzYsMS40MzVjMC4xMjgsMC4zNTUsMC4yODcsMC43NDIsMC41MTEsMS4xNjEgYzAuMDgsMC4xMjksMC4xMTIsMC4yNTgsMC4xMTIsMC4zNzFjMCwwLjE2MS0wLjA5NiwwLjMyMi0wLjMwMywwLjQ4NGwtMS4wMDYsMC42NzdjLTAuMTQ0LDAuMDk3LTAuMjg3LDAuMTQ1LTAuNDE1LDAuMTQ1IGMtMC4xNiwwLTAuMzE5LTAuMDgxLTAuNDc5LTAuMjI2Yy0wLjIyNC0wLjI0Mi0wLjQxNS0wLjUtMC41NzUtMC43NThjLTAuMTYtMC4yNzQtMC4zMTktMC41OC0wLjQ5NS0wLjk1MSBjLTEuMjQ1LDEuNDgzLTIuODEsMi4yMjUtNC42OTQsMi4yMjVjLTEuMzQxLDAtMi40MTEtMC4zODctMy4xOTMtMS4xNjFzLTEuMTgxLTEuODA2LTEuMTgxLTMuMDk2YzAtMS4zNywwLjQ3OS0yLjQ4MywxLjQ1My0zLjMyMSBzMi4yNjctMS4yNTgsMy45MTEtMS4yNThjMC41NDMsMCwxLjEwMiwwLjA0OCwxLjY5MiwwLjEyOXMxLjE5NywwLjIxLDEuODM2LDAuMzU1di0xLjE3N2MwLTEuMjI1LTAuMjU1LTIuMDgtMC43NS0yLjU4IGMtMC41MTEtMC41LTEuMzczLTAuNzQyLTIuNjAyLTAuNzQyYy0wLjU1OSwwLTEuMTMzLDAuMDY0LTEuNzI0LDAuMjFjLTAuNTkxLDAuMTQ1LTEuMTY1LDAuMzIyLTEuNzI0LDAuNTQ4IGMtMC4yNTUsMC4xMTMtMC40NDcsMC4xNzctMC41NTksMC4yMWMtMC4xMTIsMC4wMzItMC4xOTIsMC4wNDgtMC4yNTUsMC4wNDhjLTAuMjI0LDAtMC4zMzUtMC4xNjEtMC4zMzUtMC41di0wLjc5IGMwLTAuMjU4LDAuMDMyLTAuNDUxLDAuMTEyLTAuNTY0YzAuMDgtMC4xMTMsMC4yMjQtMC4yMjYsMC40NDctMC4zMzljMC41NTktMC4yOSwxLjIyOS0wLjUzMiwyLjAxMi0wLjcyNiBjMC43ODItMC4yMSwxLjYxMi0wLjMwNiwyLjQ5LTAuMzA2YzEuOSwwLDMuMjg5LDAuNDM1LDQuMTgzLDEuMzA2YzAuODc4LDAuODcxLDEuMzI1LDIuMTkzLDEuMzI1LDMuOTY2djUuMjI0SDEzLjUyN3ogTTcuMDQ1LDIzLjk3OWMwLjUyNywwLDEuMDctMC4wOTcsMS42NDQtMC4yOWMwLjU3NS0wLjE5MywxLjA4Ni0wLjU0OCwxLjUxNy0xLjAzMmMwLjI1NS0wLjMwNiwwLjQ0Ny0wLjY0NSwwLjU0My0xLjAzMiBjMC4wOTYtMC4zODcsMC4xNi0wLjg1NSwwLjE2LTEuNDAzdi0wLjY3N2MtMC40NjMtMC4xMTMtMC45NTgtMC4yMS0xLjQ2OS0wLjI3NGMtMC41MTEtMC4wNjQtMS4wMDYtMC4wOTctMS41MDEtMC4wOTcgYy0xLjA3LDAtMS44NTIsMC4yMS0yLjM3OSwwLjY0NXMtMC43ODIsMS4wNDgtMC43ODIsMS44NTRjMCwwLjc1OCwwLjE5MiwxLjMyMiwwLjU5MSwxLjcwOSBDNS43NTIsMjMuNzg2LDYuMzExLDIzLjk3OSw3LjA0NSwyMy45Nzl6IE0xOS44NjUsMjUuNzIxYy0wLjI4NywwLTAuNDc5LTAuMDQ4LTAuNjA3LTAuMTYxYy0wLjEyOC0wLjA5Ny0wLjIzOS0wLjMyMi0wLjMzNS0wLjYyOSBsLTMuNzUyLTEyLjQ2M2MtMC4wOTYtMC4zMjItMC4xNDQtMC41MzItMC4xNDQtMC42NDVjMC0wLjI1OCwwLjEyOC0wLjQwMywwLjM4My0wLjQwM2gxLjU2NWMwLjMwMywwLDAuNTExLDAuMDQ4LDAuNjIzLDAuMTYxIGMwLjEyOCwwLjA5NywwLjIyMywwLjMyMiwwLjMxOSwwLjYyOWwyLjY4MiwxMC42NzRsMi40OS0xMC42NzRjMC4wOC0wLjMyMiwwLjE3Ni0wLjUzMiwwLjMwMy0wLjYyOSBjMC4xMjgtMC4wOTcsMC4zNTEtMC4xNjEsMC42MzktMC4xNjFoMS4yNzdjMC4zMDMsMCwwLjUxMSwwLjA0OCwwLjYzOSwwLjE2MWMwLjEyOCwwLjA5NywwLjIzOSwwLjMyMiwwLjMwMywwLjYyOWwyLjUyMiwxMC44MDMgbDIuNzYyLTEwLjgwM2MwLjA5Ni0wLjMyMiwwLjIwOC0wLjUzMiwwLjMxOS0wLjYyOWMwLjEyOC0wLjA5NywwLjMzNS0wLjE2MSwwLjYyMy0wLjE2MWgxLjQ4NWMwLjI1NSwwLDAuMzk5LDAuMTI5LDAuMzk5LDAuNDAzIGMwLDAuMDgxLTAuMDE2LDAuMTYxLTAuMDMyLDAuMjU4cy0wLjA0OCwwLjIyNi0wLjExMiwwLjQwM2wtMy44NDcsMTIuNDYzYy0wLjA5NiwwLjMyMi0wLjIwOCwwLjUzMi0wLjMzNSwwLjYyOSBzLTAuMzM1LDAuMTYxLTAuNjA3LDAuMTYxaC0xLjM3M2MtMC4zMDMsMC0wLjUxMS0wLjA0OC0wLjYzOS0wLjE2MWMtMC4xMjgtMC4xMTMtMC4yMzktMC4zMjItMC4zMDMtMC42NDVsLTIuNDc0LTEwLjQgTDIyLjE4LDI0LjkxNWMtMC4wOCwwLjMyMi0wLjE3NiwwLjUzMi0wLjMwMywwLjY0NWMtMC4xMjgsMC4xMTMtMC4zNTEsMC4xNjEtMC42MzksMC4xNjFIMTkuODY1eiBNNDAuMzc5LDI2LjE1NiBjLTAuODMsMC0xLjY2LTAuMDk3LTIuNDU4LTAuMjljLTAuNzk4LTAuMTkzLTEuNDIxLTAuNDAzLTEuODM2LTAuNjQ1Yy0wLjI1NS0wLjE0NS0wLjQzMS0wLjMwNi0wLjQ5NS0wLjQ1MSBjLTAuMDY0LTAuMTQ1LTAuMDk2LTAuMzA2LTAuMDk2LTAuNDUxdi0wLjgyMmMwLTAuMzM5LDAuMTI4LTAuNSwwLjM2Ny0wLjVjMC4wOTYsMCwwLjE5MiwwLjAxNiwwLjI4NywwLjA0OCBjMC4wOTYsMC4wMzIsMC4yMzksMC4wOTcsMC4zOTksMC4xNjFjMC41NDMsMC4yNDIsMS4xMzMsMC40MzUsMS43NTYsMC41NjRjMC42MzksMC4xMjksMS4yNjEsMC4xOTMsMS45LDAuMTkzIGMxLjAwNiwwLDEuNzg4LTAuMTc3LDIuMzMxLTAuNTMyYzAuNTQzLTAuMzU1LDAuODMtMC44NzEsMC44My0xLjUzMmMwLTAuNDUxLTAuMTQ0LTAuODIyLTAuNDMxLTEuMTI5IGMtMC4yODctMC4zMDYtMC44My0wLjU4LTEuNjEyLTAuODM4bC0yLjMxNS0wLjcyNmMtMS4xNjUtMC4zNzEtMi4wMjctMC45MTktMi41NTQtMS42NDVjLTAuNTI3LTAuNzA5LTAuNzk4LTEuNDk5LTAuNzk4LTIuMzM4IGMwLTAuNjc3LDAuMTQ0LTEuMjc0LDAuNDMxLTEuNzlzMC42NzEtMC45NjcsMS4xNDktMS4zMjJjMC40NzktMC4zNzEsMS4wMjItMC42NDUsMS42Ni0wLjgzOEMzOS41MzMsMTEuMDgxLDQwLjIwMywxMSw0MC45MDYsMTEgYzAuMzUxLDAsMC43MTgsMC4wMTYsMS4wNywwLjA2NGMwLjM2NywwLjA0OCwwLjcwMiwwLjExMywxLjAzOCwwLjE3N2MwLjMxOSwwLjA4MSwwLjYyMywwLjE2MSwwLjkxLDAuMjU4czAuNTExLDAuMTkzLDAuNjcxLDAuMjkgYzAuMjI0LDAuMTI5LDAuMzgzLDAuMjU4LDAuNDc5LDAuNDAzYzAuMDk2LDAuMTI5LDAuMTQ0LDAuMzA2LDAuMTQ0LDAuNTMydjAuNzU4YzAsMC4zMzktMC4xMjgsMC41MTYtMC4zNjcsMC41MTYgYy0wLjEyOCwwLTAuMzM1LTAuMDY0LTAuNjA3LTAuMTkzYy0wLjkxLTAuNDE5LTEuOTMyLTAuNjI5LTMuMDY1LTAuNjI5Yy0wLjkxLDAtMS42MjgsMC4xNDUtMi4xMjMsMC40NTEgYy0wLjQ5NSwwLjMwNi0wLjc1LDAuNzc0LTAuNzUsMS40MzVjMCwwLjQ1MSwwLjE2LDAuODM4LDAuNDc5LDEuMTQ1YzAuMzE5LDAuMzA2LDAuOTEsMC42MTMsMS43NTYsMC44ODdsMi4yNjcsMC43MjYgYzEuMTQ5LDAuMzcxLDEuOTgsMC44ODcsMi40NzQsMS41NDhzMC43MzQsMS40MTksMC43MzQsMi4yNTdjMCwwLjY5My0wLjE0NCwxLjMyMi0wLjQxNSwxLjg3IGMtMC4yODcsMC41NDgtMC42NzEsMS4wMzItMS4xNjUsMS40MTljLTAuNDk1LDAuNDAzLTEuMDg2LDAuNjkzLTEuNzcyLDAuOTAzQzQxLjk0MywyNi4wNDMsNDEuMTkzLDI2LjE1Niw0MC4zNzksMjYuMTU2eiIgZmlsbD0iIzI1MmYzZSIvPjxwYXRoIGQ9Ik00My4zOTYsMzMuOTkyYy01LjI1MiwzLjkxOC0xMi44ODMsNS45OTgtMTkuNDQ1LDUuOTk4Yy05LjE5NSwwLTE3LjQ4MS0zLjQzNC0yMy43MzktOS4xNDIgYy0wLjQ5NS0wLjQ1MS0wLjA0OC0xLjA2NCwwLjU0My0wLjcwOWM2Ljc2OSwzLjk2NiwxNS4xMTgsNi4zNjksMjMuNzU1LDYuMzY5YzUuODI3LDAsMTIuMjI5LTEuMjI1LDE4LjExOS0zLjc0MSBDNDMuNTA4LDMyLjM2NCw0NC4yNTgsMzMuMzQ3LDQzLjM5NiwzMy45OTJ6IE00NS41ODMsMzEuNDc3Yy0wLjY3MS0wLjg3MS00LjQzOC0wLjQxOS02LjE0Ni0wLjIxIGMtMC41MTEsMC4wNjQtMC41OTEtMC4zODctMC4xMjgtMC43MjZjMy4wMDEtMi4xMjgsNy45MzQtMS41MTYsOC41MDktMC44MDZjMC41NzUsMC43MjYtMC4xNiw1LjcwOC0yLjk2OSw4LjA5NCBjLTAuNDMxLDAuMzcxLTAuODQ2LDAuMTc3LTAuNjU1LTAuMzA2QzQ0LjgzMywzNS45MjcsNDYuMjU0LDMyLjMzMSw0NS41ODMsMzEuNDc3eiIgZmlsbD0iI2Y5MCIvPjwvc3ZnPg==;imageBackground=none;imageBorder=default;" vertex="1" parent="1">
          <mxGeometry x="120" y="240" width="40" height="40" as="geometry" />
        </mxCell>
        <mxCell id="6Awo63cmqHgEUbsFCKZw-2" value="" style="rounded=0;whiteSpace=wrap;html=1;fillColor=none;" vertex="1" parent="1">
          <mxGeometry x="160" y="350" width="430" height="330" as="geometry" />
        </mxCell>
      </root>
    </mxGraphModel>
  </diagram>
</mxfile>
